<svg preserveAspectRatio="none" width="100%" height="100%" overflow="visible" style="display: block;" viewBox="0 0 30 20.4545" fill="none" xmlns="http://www.w3.org/2000/svg">
<path id="Icon" d="M6.49159 7.43795C10.0609 7.43795 12.9545 10.352 12.9545 13.9466C12.9545 17.5405 10.0609 20.4545 6.49159 20.4545C2.92227 20.4545 0.028631 17.5405 0.028631 13.9466L0 13.0166C0 5.8275 5.78728 0 12.9259 0V3.71932C10.4598 3.71932 8.14091 4.68613 6.3975 6.4425C6.06136 6.78 5.75523 7.14 5.4791 7.51773C5.8091 7.46523 6.14727 7.43795 6.49159 7.43795ZM23.537 7.43795C27.1064 7.43795 30 10.352 30 13.9466C30 17.5405 27.1064 20.4545 23.537 20.4545C19.9677 20.4545 17.0741 17.5405 17.0741 13.9466L17.0455 13.0166C17.0455 5.8275 22.8327 0 29.9714 0V3.71932C27.5052 3.71932 25.1864 4.68613 23.443 6.4425C23.1068 6.78 22.8007 7.14 22.5245 7.51773C22.8545 7.46523 23.1927 7.43795 23.537 7.43795Z" fill="var(--fill-0, #595D62)"/>
</svg>
